# xmcd CD database file
#
# Track frame offsets:
#	150
#	25290
#	66929
#	97647
#	107327
#	134556
#	147028
#	162727
#	187593
#	213613
#	221082
#	243197
#	252338
#	278576
#
# Disc length: 3950 seconds
#
# Revision: 0
# Processed by: cddbd v1.4PL0 Copyright (c) Steve Scherf et al.
# Submitted via: CD2WAV32(EN) R3.19
#
DISCID=c50f6c0e
DTITLE=EarBreaker - Sokuseki-Enban
DYEAR=1900
DGENRE=
TTITLE0=remind me of you
TTITLE1=Turn the music
TTITLE2=Minimal Life
TTITLE3=buzz
TTITLE4=Virtual
TTITLE5=stencil
TTITLE6=Dreadnought
TTITLE7=bullet time
TTITLE8=Negaposi mix
TTITLE9=Valparaiso
TTITLE10=Underpass
TTITLE11=depth
TTITLE12=Turnover
TTITLE13=Chaos
EXTD=
EXTT0=
EXTT1=
EXTT2=
EXTT3=
EXTT4=
EXTT5=
EXTT6=
EXTT7=
EXTT8=
EXTT9=
EXTT10=
EXTT11=
EXTT12=
EXTT13=
PLAYORDER=
